<svg width="87" height="12" viewBox="0 0 87 12" fill="none" xmlns="http://www.w3.org/2000/svg">
<path fill-rule="evenodd" clip-rule="evenodd" d="M83.1532 0.00292969H76.6615V11.9994H83.1532L86.155 9.16716V2.81392L83.1532 0.00292969ZM78.8521 10.2352H83.9889V2.11996H78.8521V10.2352Z" fill="#2185FB"/>
<path fill-rule="evenodd" clip-rule="evenodd" d="M83.9885 11.2109L86.1547 9.16628V2.81319L83.9878 0.785156L83.9885 2.09137V11.2109Z" fill="#116CD8"/>
<path fill-rule="evenodd" clip-rule="evenodd" d="M73.0138 12.0007H75.2037V0H73.0138V12.0007Z" fill="#2185FB"/>
<path fill-rule="evenodd" clip-rule="evenodd" d="M0.845093 12.0007V0H3.12339V10.1245H8.54541V12.0007H0.845093ZM10.7457 12.0007V0H18.1667V1.87612H12.998V5.01998H17.1713V6.89618H12.998V10.1245H18.446V12.0007H10.7457ZM19.5454 12.0007L23.8658 0H26.2258L30.5462 12.0007H28.256L27.1974 8.92444H22.8771L21.8364 12.0007H19.5454ZM23.5791 7.05923H26.8795L25.7556 3.92964C25.5417 3.27074 25.2564 2.11777 25.2564 2.11777H25.2207C25.2207 2.11777 24.9347 3.27074 24.7208 3.92964L23.5791 7.05923ZM32.7465 12.0007V0H37.0067C40.862 0 43.3795 2.19733 43.3795 5.98345C43.3795 9.76957 40.862 12.0007 37.0067 12.0007H32.7465ZM34.946 9.88293H36.7645C39.2352 9.88293 40.813 8.46893 40.813 5.80725C40.813 3.17877 39.2003 1.76477 36.7645 1.76477H34.946V9.88293ZM45.9468 12.0007V0H53.3678V1.87612H48.1991V5.01998H52.3724V6.89618H48.1991V10.1245H53.6471V12.0007H45.9468ZM56.2136 12.0007V0H60.3602C61.6007 0 62.2032 0.101397 62.735 0.32113C64.0283 0.828194 64.8618 1.9776 64.8618 3.60019C64.8618 5.01998 64.0818 6.37218 62.7521 6.87932V6.91304C62.7521 6.91304 62.9118 7.09898 63.16 7.53844L65.7473 12.0007H63.1778L60.6967 7.52158H58.4994V12.0007H56.2136ZM58.7802 5.64739H60.8326C62.0531 5.64739 62.8138 4.89533 62.8138 3.67113C62.8138 2.88409 62.5129 2.25445 61.8228 1.97462C61.5049 1.83475 61.1335 1.76477 60.4434 1.76477H58.7802V5.64739Z" fill="#1E1E2F"/>
</svg>
