<svg viewBox="0 0 32 32" fill="none" xmlns="http://www.w3.org/2000/svg">
<path d="M30.4162 11.3637L14.365 27.4137C14.1792 27.5995 13.9587 27.7469 13.7161 27.8474C13.4734 27.9479 13.2133 27.9997 12.9506 27.9997C12.6879 27.9997 12.4278 27.9479 12.1851 27.8474C11.9424 27.7469 11.7219 27.5995 11.5362 27.4137L2.58372 18.4137C2.20931 18.0388 1.99902 17.5305 1.99902 17.0006C1.99902 16.4707 2.20931 15.9625 2.58372 15.5875L5.58372 12.5875C5.95751 12.2136 6.46412 12.0029 6.9928 12.0015C7.52148 12.0001 8.0292 12.2081 8.40497 12.58L12.985 16.9887L12.9987 17.0025L24.59 5.58124C24.9648 5.20798 25.4722 4.99841 26.0012 4.99841C26.5302 4.99841 27.0376 5.20798 27.4125 5.58124L30.4125 8.52624C30.5998 8.71188 30.7486 8.93273 30.8502 9.17608C30.9518 9.41943 31.0043 9.68049 31.0047 9.94421C31.005 10.2079 30.9532 10.4691 30.8522 10.7127C30.7512 10.9564 30.6031 11.1776 30.4162 11.3637Z" fill="currentColor"/>
</svg>
