<svg viewBox="0 0 40 40" fill="none" xmlns="http://www.w3.org/2000/svg">
<path d="M23.75 16.25L28.75 11.25" stroke="currentColor" stroke-width="2" stroke-linecap="round" stroke-linejoin="round"/>
<path d="M11.25 28.75L16.25 23.75" stroke="currentColor" stroke-width="2" stroke-linecap="round" stroke-linejoin="round"/>
<path d="M23.75 23.75L28.75 28.75" stroke="currentColor" stroke-width="2" stroke-linecap="round" stroke-linejoin="round"/>
<path d="M11.25 11.25L16.25 16.25" stroke="currentColor" stroke-width="2" stroke-linecap="round" stroke-linejoin="round"/>
<path d="M22.8203 10C23.1387 9.10552 23.6783 8.30616 24.3888 7.67642C25.0994 7.04668 25.9578 6.60705 26.8841 6.39849C27.8104 6.18993 28.7744 6.21923 29.6863 6.48367C30.5982 6.7481 31.4283 7.23906 32.0993 7.9108C32.7703 8.58254 33.2604 9.4132 33.5238 10.3254C33.7873 11.2376 33.8155 12.2016 33.606 13.1276C33.3964 14.0537 32.9558 14.9116 32.3253 15.6215C31.6948 16.3314 30.8948 16.8701 30 17.1875" stroke="currentColor" stroke-width="2" stroke-linecap="round" stroke-linejoin="round"/>
<path d="M30 22.8203C30.8955 23.1373 31.6962 23.676 32.3273 24.3861C32.9584 25.0962 33.3994 25.9546 33.6091 26.8812C33.8188 27.8077 33.7904 28.7723 33.5266 29.685C33.2628 30.5976 32.7721 31.4286 32.1003 32.1003C31.4286 32.7721 30.5976 33.2628 29.685 33.5266C28.7723 33.7904 27.8077 33.8188 26.8812 33.6091C25.9546 33.3994 25.0962 32.9584 24.3861 32.3273C23.676 31.6962 23.1373 30.8955 22.8203 30" stroke="currentColor" stroke-width="2" stroke-linecap="round" stroke-linejoin="round"/>
<path d="M17.1872 30C16.8698 30.8948 16.331 31.6948 15.6212 32.3253C14.9113 32.9558 14.0533 33.3964 13.1273 33.606C12.2012 33.8155 11.2372 33.7873 10.325 33.5238C9.41283 33.2604 8.58217 32.7703 7.91043 32.0993C7.23869 31.4283 6.74773 30.5982 6.4833 29.6863C6.21887 28.7744 6.18956 27.8104 6.39812 26.8841C6.60668 25.9578 7.04631 25.0994 7.67605 24.3888C8.3058 23.6783 9.10516 23.1387 9.99966 22.8203" stroke="currentColor" stroke-width="2" stroke-linecap="round" stroke-linejoin="round"/>
<path d="M10.0004 17.1875C9.10659 16.8688 8.30795 16.3292 7.67879 15.6188C7.04963 14.9084 6.6104 14.0505 6.40199 13.1247C6.19358 12.1989 6.22276 11.2355 6.4868 10.3241C6.75085 9.41263 7.24118 8.5828 7.91217 7.91181C8.58316 7.24082 9.41299 6.75048 10.3244 6.48644C11.2359 6.22239 12.1993 6.19322 13.1251 6.40163C14.0508 6.61004 14.9088 7.04926 15.6192 7.67842C16.3295 8.30758 16.8692 9.10622 17.1879 10" stroke="currentColor" stroke-width="2" stroke-linecap="round" stroke-linejoin="round"/>
<path d="M23.75 16.25H16.25V23.75H23.75V16.25Z" stroke="currentColor" stroke-width="2" stroke-linecap="round" stroke-linejoin="round"/>
</svg>
