<svg viewBox="0 0 20 18" fill="none" xmlns="http://www.w3.org/2000/svg">
<path d="M19.6344 0.849688C19.5669 0.742663 19.4733 0.654474 19.3625 0.593331C19.2517 0.532189 19.1272 0.500082 19.0007 0.5H1.00068C0.849475 0.499864 0.701761 0.545432 0.576913 0.630728C0.452066 0.716024 0.355914 0.837064 0.301072 0.977971C0.24623 1.11888 0.235258 1.27307 0.269596 1.42032C0.303934 1.56758 0.381978 1.70101 0.49349 1.80313L4.43943 5.41906L0.449428 9.74094C0.350422 9.84806 0.284801 9.98172 0.2606 10.1256C0.236399 10.2694 0.254667 10.4172 0.313169 10.5508C0.371671 10.6844 0.467866 10.7981 0.589977 10.8779C0.712088 10.9576 0.854813 11.0001 1.00068 11H13.5276L10.8238 16.6775C10.7786 16.7667 10.7517 16.8641 10.7447 16.9639C10.7376 17.0637 10.7507 17.1638 10.7829 17.2585C10.8152 17.3532 10.8661 17.4405 10.9326 17.5152C10.9991 17.5899 11.0799 17.6505 11.1702 17.6936C11.2605 17.7366 11.3585 17.7611 11.4584 17.7657C11.5584 17.7703 11.6582 17.7548 11.7521 17.7203C11.8459 17.6857 11.9319 17.6327 12.005 17.5644C12.0781 17.4961 12.1367 17.4138 12.1776 17.3225L19.6776 1.5725C19.732 1.45817 19.7565 1.33193 19.749 1.20555C19.7415 1.07916 19.702 0.956734 19.6344 0.849688ZM14.241 9.5H2.70974L6.04818 5.88406C6.11524 5.81153 6.16731 5.72647 6.20141 5.63376C6.2355 5.54105 6.25094 5.44251 6.24685 5.34381C6.24276 5.24512 6.2192 5.1482 6.17755 5.05863C6.13589 4.96906 6.07695 4.8886 6.00412 4.82188L2.92912 2H17.8129L14.241 9.5Z" fill="currentColor"/>
</svg>
