<svg width="26" height="26" viewBox="0 0 26 26" fill="none" xmlns="http://www.w3.org/2000/svg">
<path d="M21.9375 13.2195C21.9416 13.0733 21.9416 12.927 21.9375 12.7808L23.4529 10.8877C23.5323 10.7883 23.5873 10.6716 23.6134 10.5471C23.6395 10.4225 23.636 10.2936 23.6032 10.1706C23.3543 9.23702 22.9827 8.34054 22.4982 7.50462C22.4347 7.39526 22.3465 7.30223 22.2407 7.23293C22.1349 7.16364 22.0144 7.12 21.8888 7.10548L19.4797 6.83736C19.3795 6.73173 19.278 6.63017 19.175 6.53267L18.8907 4.11751C18.876 3.99179 18.8322 3.87122 18.7628 3.76543C18.6933 3.65963 18.6001 3.57152 18.4905 3.50814C17.6547 3.02394 16.7581 2.65303 15.8245 2.40517C15.7016 2.37232 15.5726 2.36881 15.4481 2.39492C15.3235 2.42103 15.2069 2.47603 15.1075 2.55548L13.2194 4.06267C13.0732 4.06267 12.9269 4.06267 12.7807 4.06267L10.8875 2.5504C10.7881 2.47095 10.6715 2.41595 10.5469 2.38984C10.4224 2.36374 10.2935 2.36725 10.1705 2.40009C9.2369 2.64895 8.34041 3.02052 7.5045 3.50509C7.39513 3.56859 7.3021 3.65675 7.23281 3.76254C7.16352 3.86833 7.11988 3.98884 7.10536 4.11447L6.83723 6.52759C6.73161 6.62848 6.63005 6.73004 6.53255 6.83228L4.11739 7.10954C3.99167 7.12417 3.8711 7.16797 3.7653 7.23744C3.65951 7.30691 3.5714 7.40015 3.50802 7.5097C3.02391 8.34573 2.65269 9.24219 2.40403 10.1757C2.37132 10.2987 2.36798 10.4277 2.39426 10.5523C2.42055 10.6768 2.47573 10.7934 2.55536 10.8927L4.06255 12.7808C4.06255 12.927 4.06255 13.0733 4.06255 13.2195L2.55028 15.1127C2.47083 15.2121 2.41583 15.3287 2.38972 15.4533C2.36361 15.5778 2.36712 15.7068 2.39997 15.8297C2.64882 16.7633 3.0204 17.6598 3.50497 18.4957C3.56847 18.6051 3.65663 18.6981 3.76242 18.7674C3.86821 18.8367 3.98871 18.8803 4.11434 18.8949L6.52341 19.163C6.62429 19.2686 6.72585 19.3702 6.82809 19.4677L7.10942 21.8828C7.12405 22.0085 7.16784 22.1291 7.23732 22.2349C7.30679 22.3407 7.40002 22.4288 7.50958 22.4922C8.3456 22.9763 9.24207 23.3475 10.1756 23.5962C10.2986 23.6289 10.4276 23.6322 10.5521 23.606C10.6767 23.5797 10.7933 23.5245 10.8926 23.4449L12.7807 21.9377C12.9269 21.9417 13.0732 21.9417 13.2194 21.9377L15.1125 23.453C15.2119 23.5324 15.3286 23.5874 15.4532 23.6135C15.5777 23.6396 15.7066 23.6361 15.8296 23.6033C16.7633 23.3549 17.6599 22.9833 18.4956 22.4983C18.605 22.4348 18.698 22.3466 18.7673 22.2408C18.8366 22.1351 18.8802 22.0145 18.8947 21.8889L19.1629 19.4799C19.2685 19.3796 19.37 19.2781 19.4675 19.1752L21.8827 18.8908C22.0084 18.8762 22.129 18.8324 22.2348 18.7629C22.3406 18.6934 22.4287 18.6002 22.4921 18.4906C22.9762 17.6546 23.3474 16.7581 23.5961 15.8246C23.6288 15.7016 23.6321 15.5726 23.6058 15.4481C23.5795 15.3235 23.5244 15.2069 23.4447 15.1076L21.9375 13.2195ZM13 17.0627C12.1966 17.0627 11.4111 16.8244 10.743 16.378C10.075 15.9316 9.55427 15.2971 9.24679 14.5548C8.9393 13.8125 8.85885 12.9957 9.01561 12.2076C9.17236 11.4196 9.55927 10.6957 10.1274 10.1275C10.6956 9.5594 11.4194 9.17248 12.2075 9.01573C12.9955 8.85898 13.8124 8.93943 14.5547 9.24691C15.297 9.55439 15.9315 10.0751 16.3779 10.7432C16.8243 11.4112 17.0625 12.1967 17.0625 13.0002C17.0625 14.0776 16.6345 15.1109 15.8727 15.8728C15.1108 16.6347 14.0775 17.0627 13 17.0627Z" fill="currentColor"/>
</svg>
