<svg viewBox="0 0 20 20" fill="none" xmlns="http://www.w3.org/2000/svg">
<g clip-path="url(#clip0_10_198)">
<path fill-rule="evenodd" clip-rule="evenodd" d="M10 0.833344C4.93739 0.833344 0.833336 4.9374 0.833336 10C0.833336 15.0626 4.93739 19.1667 10 19.1667C15.0626 19.1667 19.1667 15.0626 19.1667 10C19.1667 4.9374 15.0626 0.833344 10 0.833344ZM14.4865 8.23657C14.8933 7.82978 14.8933 7.17023 14.4865 6.76343C14.0797 6.35664 13.4202 6.35664 13.0134 6.76343L8.68605 11.0908L6.91683 9.61644C6.47488 9.24814 5.81804 9.30786 5.44975 9.74981C5.08145 10.1918 5.14116 10.8486 5.58312 11.2169L8.08312 13.3002C8.497 13.6451 9.10559 13.6175 9.48655 13.2366L14.4865 8.23657Z" fill="currentColor"/>
</g>
<defs>
<clipPath id="clip0_10_198">
<rect width="20" height="20" fill="white"/>
</clipPath>
</defs>
</svg>
