<svg width="99" height="28" viewBox="0 0 99 28" fill="none" xmlns="http://www.w3.org/2000/svg">
    <path d="M1.694 6.644H12.078V9.614H5.038V12.496H8.954C9.67267 12.496 10.318 12.6133 10.89 12.848C11.462 13.0827 11.946 13.4127 12.342 13.838C12.7527 14.2633 13.068 14.7693 13.288 15.356C13.508 15.9427 13.618 16.5807 13.618 17.27C13.618 17.9593 13.508 18.59 13.288 19.162C13.068 19.734 12.7527 20.2327 12.342 20.658C11.946 21.0833 11.462 21.4133 10.89 21.648C10.318 21.8827 9.67267 22 8.954 22H1.694V6.644ZM8.558 19.096C9.05667 19.096 9.44533 18.9713 9.724 18.722C10.0173 18.458 10.164 18.0767 10.164 17.578V16.918C10.164 16.4193 10.0173 16.0453 9.724 15.796C9.44533 15.532 9.05667 15.4 8.558 15.4H5.038V19.096H8.558ZM25.2907 22L24.1907 18.348H19.0647L17.9647 22H14.5767L19.6367 6.644H23.7727L28.7667 22H25.2907ZM21.6607 9.68H21.5507L19.8567 15.51H23.3767L21.6607 9.68ZM36.4293 22.264C35.3879 22.264 34.4493 22.1027 33.6133 21.78C32.7773 21.4427 32.0659 20.9513 31.4793 20.306C30.8926 19.646 30.4379 18.832 30.1153 17.864C29.7926 16.8813 29.6313 15.7373 29.6313 14.432C29.6313 13.1413 29.7926 11.9973 30.1153 11C30.4379 9.988 30.8926 9.14467 31.4793 8.47C32.0659 7.78067 32.7773 7.26 33.6133 6.908C34.4493 6.556 35.3879 6.38 36.4293 6.38C37.8519 6.38 39.0253 6.67333 39.9493 7.26C40.8733 7.832 41.6139 8.74133 42.1713 9.988L39.2893 11.484C39.0839 10.8387 38.7613 10.3253 38.3213 9.944C37.8959 9.548 37.2653 9.35 36.4293 9.35C35.4466 9.35 34.6546 9.67267 34.0533 10.318C33.4666 10.9487 33.1733 11.8727 33.1733 13.09V15.554C33.1733 16.7713 33.4666 17.7027 34.0533 18.348C34.6546 18.9787 35.4466 19.294 36.4293 19.294C37.2506 19.294 37.9033 19.074 38.3873 18.634C38.8859 18.1793 39.2526 17.6367 39.4873 17.006L42.2153 18.59C41.6433 19.7633 40.8879 20.6727 39.9493 21.318C39.0253 21.9487 37.8519 22.264 36.4293 22.264Z" fill="#2C2C2C"/>
    <path d="M57.1031 19.2787V22.0096H47V19.724C49.9927 15.4628 51.7693 12.8275 52.33 11.8183C52.8982 10.8025 53.1823 10.0109 53.1823 9.44362C53.1823 9.00827 53.0952 8.68505 52.9209 8.47397C52.7543 8.25629 52.4967 8.14745 52.1481 8.14745C51.7996 8.14745 51.5382 8.26618 51.364 8.50365C51.1973 8.74112 51.114 9.21275 51.114 9.91856V11.4423H47V10.8585C47 9.96144 47.053 9.25563 47.1591 8.74112C47.2652 8.22001 47.5266 7.70879 47.9433 7.20747C48.36 6.70615 48.9017 6.32686 49.5684 6.06961C50.2351 5.81235 51.0344 5.68372 51.9663 5.68372C53.7922 5.68372 55.1711 6.0795 56.103 6.87106C57.0425 7.65602 57.5122 8.65207 57.5122 9.85919C57.5122 10.7761 57.2471 11.7457 56.7167 12.7682C56.1939 13.7906 54.6446 15.9608 52.0686 19.2787H57.1031Z" fill="#F7000B"/>
    <path d="M69.7178 11.4126V16.7556C69.7178 17.9694 69.642 18.8533 69.4905 19.4074C69.3389 19.9615 69.0245 20.4793 68.5472 20.9608C68.0699 21.4423 67.4941 21.7886 66.8198 21.9997C66.1455 22.2108 65.3917 22.3163 64.5583 22.3163C63.4597 22.3163 62.5467 22.2075 61.8194 21.9898C61.0921 21.7655 60.5125 21.4192 60.0806 20.9509C59.6488 20.4826 59.3419 19.9911 59.1601 19.4766C58.9783 18.9555 58.8873 18.131 58.8873 17.003V11.4126C58.8873 9.94165 59.0313 8.84006 59.3192 8.10787C59.6147 7.37568 60.1943 6.78861 61.058 6.34665C61.9293 5.9047 62.9824 5.68372 64.2173 5.68372C65.225 5.68372 66.1266 5.83874 66.9221 6.14876C67.7176 6.45219 68.3123 6.82489 68.7063 7.26684C69.1003 7.70879 69.3655 8.20681 69.5018 8.76091C69.6458 9.315 69.7178 10.1989 69.7178 11.4126ZM65.1265 10.067C65.1265 9.21605 65.0772 8.68505 64.9787 8.47397C64.8878 8.25629 64.6681 8.14745 64.3196 8.14745C63.9787 8.14745 63.7514 8.26288 63.6377 8.49375C63.5317 8.71803 63.4786 9.24244 63.4786 10.067V17.8836C63.4786 18.8137 63.5279 19.3744 63.6264 19.5657C63.7324 19.757 63.9559 19.8526 64.2969 19.8526C64.6378 19.8526 64.8613 19.7405 64.9674 19.5162C65.0734 19.2919 65.1265 18.7873 65.1265 18.0023V10.067Z" fill="#F7000B"/>
    <path d="M74.4227 18.7444V22.0096H70.9565V18.7444H74.4227Z" fill="#F7000B"/>
    <path d="M84.2871 12.9364C84.9842 13.1409 85.5031 13.4773 85.8441 13.9456C86.185 14.4074 86.3555 15.4957 86.3555 17.2108C86.3555 18.4839 86.1888 19.4733 85.8554 20.1791C85.5221 20.8783 84.9463 21.4126 84.128 21.782C83.3098 22.1448 82.2605 22.3262 80.9801 22.3262C79.5254 22.3262 78.3814 22.1152 77.548 21.693C76.7221 21.2642 76.1766 20.7431 75.9115 20.1297C75.6539 19.5096 75.5251 18.4377 75.5251 16.914V15.6475H80.1163V18.2497C80.1163 18.9423 80.1618 19.3843 80.2527 19.5756C80.3512 19.7603 80.5634 19.8526 80.8891 19.8526C81.2452 19.8526 81.4801 19.7339 81.5937 19.4964C81.7074 19.2589 81.7642 18.6389 81.7642 17.6363V16.5281C81.7642 15.9146 81.6847 15.4661 81.5256 15.1824C81.3664 14.8988 81.1316 14.7141 80.8209 14.6283C80.5103 14.536 79.908 14.4832 79.014 14.47V12.1448C80.105 12.1448 80.7793 12.1085 81.0369 12.036C81.2945 11.9634 81.4801 11.8051 81.5937 11.561C81.7074 11.317 81.7642 10.9344 81.7642 10.4133V9.52278C81.7642 8.96209 81.696 8.5927 81.5596 8.4146C81.4308 8.2365 81.2263 8.14745 80.946 8.14745C80.6278 8.14745 80.408 8.24309 80.2868 8.43439C80.1732 8.61908 80.1163 9.01816 80.1163 9.63162V10.9476H75.5251V9.58215C75.5251 8.0518 75.9266 7.01948 76.7297 6.48518C77.5328 5.94428 78.8094 5.67383 80.5596 5.67383C82.7491 5.67383 84.2341 6.04652 85.0145 6.7919C85.7948 7.53729 86.185 8.57291 86.185 9.89877C86.185 10.7959 86.0449 11.4456 85.7645 11.848C85.4842 12.2438 84.9917 12.6066 84.2871 12.9364Z" fill="#F7000B"/>
    <path d="M98.0269 5.99045V8.55312H92.3333V11.2741C93.0454 10.5419 93.9622 10.1758 95.0835 10.1758C96.3487 10.1758 97.3034 10.4858 97.9473 11.1059C98.5989 11.7194 98.9247 12.9034 98.9247 14.658V16.9436C98.9247 18.0782 98.8603 18.9126 98.7315 19.4469C98.6103 19.9746 98.3451 20.4661 97.936 20.9212C97.5269 21.3698 96.9548 21.7161 96.2199 21.9601C95.4926 22.1976 94.6024 22.3163 93.5493 22.3163C92.3673 22.3163 91.3256 22.1382 90.424 21.782C89.5224 21.4192 88.8822 20.8816 88.5034 20.1692C88.1246 19.4568 87.9352 18.3553 87.9352 16.8645V15.9938H92.5265V16.9931C92.5265 18.0287 92.5681 18.7642 92.6515 19.1996C92.7348 19.6349 93.0227 19.8526 93.5152 19.8526C93.7425 19.8526 93.9243 19.79 94.0607 19.6646C94.2046 19.5393 94.2804 19.4041 94.288 19.2589C94.3031 19.1138 94.3183 18.4839 94.3334 17.3691V14.193C94.3334 13.5927 94.2614 13.1837 94.1175 12.9661C93.9735 12.7484 93.7349 12.6395 93.4015 12.6395C93.1894 12.6395 93.0113 12.6956 92.8674 12.8077C92.7234 12.9199 92.6287 13.0419 92.5833 13.1738C92.5454 13.2992 92.5265 13.596 92.5265 14.0643H87.9806L88.1738 5.99045H98.0269Z" fill="#F7000B"/>
</svg>
