<svg width="83" height="40" viewBox="0 0 83 40" fill="none" xmlns="http://www.w3.org/2000/svg">
<path d="M15.6675 21.098V25.3329H0V21.7885C4.64092 15.1803 7.3961 11.0937 8.26554 9.52861C9.14672 7.9533 9.58732 6.72578 9.58732 5.84606C9.58732 5.17092 9.4522 4.66969 9.18197 4.34235C8.92349 4.00478 8.52402 3.836 7.98356 3.836C7.44309 3.836 7.03775 4.02012 6.76752 4.38838C6.50904 4.75664 6.37979 5.48803 6.37979 6.58257V8.94554H0V8.04025C0 6.64906 0.0822441 5.55452 0.246732 4.75664C0.411221 3.94852 0.816567 3.15575 1.46277 2.37832C2.10897 1.60089 2.94904 1.0127 3.98297 0.613759C5.01689 0.214816 6.25643 0.015344 7.70158 0.015344C10.5331 0.015344 12.6715 0.629103 14.1166 1.85662C15.5735 3.07391 16.302 4.61854 16.302 6.49051C16.302 7.91238 15.8907 9.41609 15.0683 11.0016C14.2576 12.5872 11.8549 15.9526 7.86019 21.098H15.6675Z" fill="#F7000B"/>
<path d="M35.2299 8.89951V17.1853C35.2299 19.0675 35.1124 20.4382 34.8774 21.2975C34.6424 22.1567 34.1548 22.9597 33.4146 23.7065C32.6744 24.4532 31.7815 24.9902 30.7358 25.3176C29.6901 25.6449 28.5211 25.8086 27.2287 25.8086C25.5251 25.8086 24.1093 25.6398 22.9814 25.3022C21.8534 24.9544 20.9546 24.4174 20.2849 23.6911C19.6152 22.9648 19.1394 22.2027 18.8574 21.4049C18.5754 20.5967 18.4344 19.3181 18.4344 17.5689V8.89951C18.4344 6.61837 18.6577 4.91008 19.1041 3.77462C19.5624 2.63917 20.4612 1.72876 21.8006 1.04339C23.1517 0.358026 24.7849 0.015344 26.7 0.015344C28.2626 0.015344 29.6608 0.255733 30.8944 0.736511C32.1281 1.20706 33.0504 1.78502 33.6613 2.47038C34.2723 3.15575 34.6835 3.92806 34.895 4.78732C35.1182 5.64659 35.2299 7.01732 35.2299 8.89951ZM28.1099 6.81273C28.1099 5.49315 28.0335 4.66969 27.8808 4.34235C27.7398 4.00478 27.399 3.836 26.8586 3.836C26.3299 3.836 25.9774 4.01501 25.8012 4.37304C25.6367 4.72083 25.5544 5.53406 25.5544 6.81273V18.9345C25.5544 20.3768 25.6308 21.2463 25.7835 21.543C25.948 21.8396 26.2946 21.9879 26.8233 21.9879C27.352 21.9879 27.6986 21.814 27.8631 21.4662C28.0276 21.1184 28.1099 20.3359 28.1099 19.1186V6.81273Z" fill="#F7000B"/>
<path d="M42.5261 20.2694V25.3329H37.1508V20.2694H42.5261Z" fill="#F7000B"/>
<path d="M57.8235 11.2625C58.9044 11.5796 59.7092 12.1013 60.238 12.8276C60.7667 13.5436 61.031 15.2315 61.031 17.8911C61.031 19.8653 60.7725 21.3997 60.2556 22.4943C59.7386 23.5786 58.8457 24.4072 57.5768 24.98C56.3079 25.5426 54.6806 25.8239 52.695 25.8239C50.4392 25.8239 48.665 25.4966 47.3726 24.8419C46.092 24.177 45.246 23.3689 44.8348 22.4176C44.4353 21.456 44.2356 19.7937 44.2356 17.4308V15.4667H51.3556V19.5022C51.3556 20.5763 51.4261 21.2617 51.5671 21.5583C51.7198 21.8447 52.0488 21.9879 52.554 21.9879C53.1062 21.9879 53.4704 21.8038 53.6467 21.4355C53.8229 21.0673 53.911 20.1057 53.911 18.5509V16.8324C53.911 15.881 53.7877 15.1854 53.5409 14.7456C53.2942 14.3057 52.93 14.0193 52.4483 13.8863C51.9665 13.7431 51.0325 13.6613 49.6461 13.6408V10.035C51.338 10.035 52.3836 9.97871 52.7831 9.86618C53.1826 9.75366 53.4704 9.50816 53.6467 9.12967C53.8229 8.75119 53.911 8.15789 53.911 7.34977V5.96881C53.911 5.09932 53.8053 4.52648 53.5938 4.25028C53.3941 3.97409 53.0768 3.836 52.6421 3.836C52.1487 3.836 51.8079 3.98432 51.6199 4.28097C51.4437 4.56739 51.3556 5.18627 51.3556 6.13759V8.17834H44.2356V6.06087C44.2356 3.68767 44.8583 2.08678 46.1037 1.25821C47.3491 0.419402 49.3289 0 52.0429 0C55.4384 0 57.7413 0.577957 58.9514 1.73387C60.1616 2.88978 60.7667 4.49579 60.7667 6.55188C60.7667 7.94307 60.5493 8.95066 60.1146 9.57465C59.6799 10.1884 58.9162 10.751 57.8235 11.2625Z" fill="#F7000B"/>
<path d="M79.1306 0.491008V4.4651H70.3011V8.6847C71.4055 7.54924 72.8272 6.98151 74.5661 6.98151C76.5282 6.98151 78.0086 7.46229 79.0072 8.42385C80.0177 9.37518 80.5229 11.2113 80.5229 13.9323V17.4768C80.5229 19.2362 80.423 20.5303 80.2233 21.3588C80.0353 22.1772 79.6241 22.9393 78.9896 23.6451C78.3552 24.3407 77.4681 24.8777 76.3284 25.2562C75.2005 25.6245 73.82 25.8086 72.1869 25.8086C70.354 25.8086 68.7385 25.5324 67.3403 24.98C65.9422 24.4174 64.9494 23.5837 64.3619 22.4789C63.7744 21.3742 63.4807 19.6659 63.4807 17.354V16.0038H70.6007V17.5535C70.6007 19.1595 70.6653 20.3001 70.7946 20.9752C70.9238 21.6504 71.3703 21.9879 72.134 21.9879C72.4865 21.9879 72.7684 21.8908 72.9799 21.6964C73.2032 21.502 73.3206 21.2923 73.3324 21.0673C73.3559 20.8422 73.3794 19.8653 73.4029 18.1366V13.2112C73.4029 12.2803 73.2913 11.6461 73.068 11.3085C72.8448 10.971 72.4747 10.8022 71.9577 10.8022C71.6288 10.8022 71.3527 10.8891 71.1294 11.063C70.9062 11.2369 70.7593 11.4262 70.6888 11.6307C70.6301 11.8251 70.6007 12.2854 70.6007 13.0117H63.5512L63.8508 0.491008H79.1306Z" fill="#F7000B"/>
<path d="M3.70493 36.1927L5.22712 32.8729H7.0882L4.16446 38.6681L3.92895 39.0493C3.49623 39.683 2.83375 39.9998 1.9415 39.9998L1.33837 39.9805L1.32114 38.8176C1.41304 38.8305 1.56239 38.8369 1.76918 38.8369C2.01043 38.8369 2.20381 38.8016 2.34933 38.7308C2.49868 38.66 2.62313 38.5297 2.7227 38.3399L2.93523 37.8815L0 32.8729H1.85534L3.70493 36.1927Z" fill="#2C2C2C"/>
<path d="M14.8082 39.8985H13.085V36.8875H9.72473V39.8985H8.00151V32.8729H9.72473V35.7198H13.085V32.8729H14.8082V39.8985Z" fill="#2C2C2C"/>
<path d="M21.3335 32.8729H23.0625V39.8985H21.3335V35.2324L17.9847 39.8985H16.2615V32.8729H17.9847V37.5486L21.3335 32.8729Z" fill="#2C2C2C"/>
<path d="M24.556 39.8985V32.8729H27.4854C28.5002 32.8729 29.2699 33.0369 29.7946 33.3651C30.3192 33.69 30.5815 34.1677 30.5815 34.7982C30.5815 35.1424 30.4762 35.4464 30.2656 35.7102C30.055 35.9707 29.762 36.1621 29.3867 36.2844C29.8156 36.3744 30.1526 36.5562 30.3977 36.8296C30.6466 37.1031 30.7711 37.4376 30.7711 37.8333C30.7711 38.5088 30.5145 39.0203 30.0014 39.3677C29.4882 39.7152 28.7568 39.8921 27.8071 39.8985H24.556ZM26.2792 36.8393V38.7356H27.7554C28.1613 38.7356 28.4773 38.6552 28.7032 38.4943C28.933 38.3303 29.0478 38.1051 29.0478 37.8188C29.0478 37.1754 28.6515 36.8489 27.8588 36.8393H26.2792ZM26.2792 35.8163H27.5544C28.4236 35.8034 28.8583 35.5123 28.8583 34.9429C28.8583 34.6245 28.7472 34.3961 28.5251 34.2577C28.3068 34.1162 27.9603 34.0454 27.4854 34.0454H26.2792V35.8163Z" fill="#2C2C2C"/>
<path d="M37.101 36.8537H33.7924V38.7356H37.6754V39.8985H32.0692V32.8729H37.664V34.0454H33.7924V35.7198H37.101V36.8537Z" fill="#2C2C2C"/>
<path d="M40.4096 37.4231V39.8985H38.6864V32.8729H41.949C42.5771 32.8729 43.1285 32.9694 43.6033 33.1624C44.082 33.3554 44.4496 33.6304 44.7062 33.9875C44.9628 34.3414 45.0911 34.7451 45.0911 35.1987C45.0911 35.8871 44.8096 36.4307 44.2467 36.8296C43.6876 37.2253 42.9121 37.4231 41.9203 37.4231H40.4096ZM40.4096 36.2506H41.949C42.4047 36.2506 42.7513 36.1605 42.9887 35.9804C43.23 35.8002 43.3506 35.5429 43.3506 35.2083C43.3506 34.8641 43.23 34.5859 42.9887 34.3735C42.7475 34.1612 42.4143 34.0519 41.9893 34.0454H40.4096V36.2506Z" fill="#2C2C2C"/>
<path d="M52.8456 37.5582C52.7805 38.3142 52.4473 38.9093 51.8461 39.3436C51.2487 39.7779 50.4599 39.995 49.4795 39.995C48.4073 39.995 47.5629 39.6926 46.9464 39.0879C46.3337 38.4799 46.0273 37.6467 46.0273 36.5884V36.1589C46.0273 35.4834 46.169 34.8882 46.4524 34.3735C46.7358 33.8588 47.1398 33.4648 47.6644 33.1913C48.1929 32.9147 48.8056 32.7764 49.5025 32.7764C50.4675 32.7764 51.2449 32.9935 51.8346 33.4278C52.4243 33.8621 52.7652 34.4717 52.8571 35.2566H51.1338C51.0917 34.803 50.9405 34.4749 50.6801 34.2722C50.4235 34.0663 50.031 33.9634 49.5025 33.9634C48.9281 33.9634 48.4973 34.1371 48.2101 34.4845C47.9267 34.8287 47.7812 35.3643 47.7735 36.0913V36.6221C47.7735 37.3813 47.9095 37.9362 48.1814 38.2869C48.4571 38.6375 48.8898 38.8128 49.4795 38.8128C50.0118 38.8128 50.4082 38.7115 50.6686 38.5088C50.9328 38.3029 51.0841 37.9861 51.1224 37.5582H52.8456Z" fill="#2C2C2C"/>
<path d="M58.9917 32.8729H60.7207V39.8985H58.9917V35.2324L55.6429 39.8985H53.9197V32.8729H55.6429V37.5486L58.9917 32.8729Z" fill="#2C2C2C"/>
<path d="M68.3374 34.0454H65.7755V39.8985H64.0523V34.0454H61.5249V32.8729H68.3374V34.0454Z" fill="#2C2C2C"/>
<path d="M74.3572 36.8537H71.0486V38.7356H74.9316V39.8985H69.3254V32.8729H74.9201V34.0454H71.0486V35.7198H74.3572V36.8537Z" fill="#2C2C2C"/>
<path d="M82.3529 34.0454H79.7911V39.8985H78.0678V34.0454H75.5405V32.8729H82.3529V34.0454Z" fill="#2C2C2C"/>
</svg>
