<svg width="70" height="34" viewBox="0 0 70 34" fill="none" xmlns="http://www.w3.org/2000/svg">
<path d="M13.3174 17.9333V21.533H0V18.5202C3.94478 12.9033 6.28668 9.42965 7.02571 8.09932C7.77471 6.7603 8.14922 5.71691 8.14922 4.96915C8.14922 4.39528 8.03437 3.96923 7.80467 3.691C7.58497 3.40406 7.24541 3.2606 6.78602 3.2606C6.32663 3.2606 5.98209 3.41711 5.75239 3.73012C5.53268 4.04314 5.42283 4.66483 5.42283 5.59518V7.60371H0V6.83421C0 5.6517 0.0699075 4.72134 0.209723 4.04314C0.349538 3.35624 0.694082 2.68238 1.24336 2.02157C1.79263 1.36076 2.50668 0.860798 3.38552 0.521696C4.26436 0.182593 5.31796 0.0130424 6.54634 0.0130424C8.95316 0.0130424 10.7708 0.534738 11.9991 1.57813C13.2375 2.61283 13.8567 3.92576 13.8567 5.51693C13.8567 6.72552 13.5071 8.00368 12.8081 9.35139C12.119 10.6991 10.0767 13.5597 6.68116 17.9333H13.3174Z" fill="#F7000B"/>
<path d="M29.9454 7.56459V14.6075C29.9454 16.2073 29.8455 17.3725 29.6458 18.1028C29.446 18.8332 29.0316 19.5158 28.4024 20.1505C27.7733 20.7852 27.0143 21.2417 26.1254 21.5199C25.2366 21.7982 24.2429 21.9373 23.1444 21.9373C21.6963 21.9373 20.4929 21.7938 19.5342 21.5069C18.5754 21.2113 17.8114 20.7548 17.2422 20.1374C16.6729 19.5201 16.2685 18.8723 16.0288 18.1941C15.7891 17.5072 15.6693 16.4204 15.6693 14.9335V7.56459C15.6693 5.62562 15.859 4.17356 16.2385 3.20843C16.628 2.24329 17.392 1.46944 18.5305 0.886882C19.679 0.304322 21.0671 0.0130424 22.695 0.0130424C24.0232 0.0130424 25.2116 0.217373 26.2603 0.626035C27.3089 1.026 28.0928 1.51726 28.6121 2.09982C29.1315 2.68238 29.481 3.33885 29.6608 4.06923C29.8505 4.7996 29.9454 5.96472 29.9454 7.56459ZM23.8934 5.79082C23.8934 4.66918 23.8285 3.96923 23.6986 3.691C23.5788 3.40406 23.2892 3.2606 22.8298 3.2606C22.3804 3.2606 22.0808 3.41276 21.931 3.71708C21.7912 4.01271 21.7213 4.70395 21.7213 5.79082V16.0943C21.7213 17.3203 21.7862 18.0594 21.916 18.3115C22.0558 18.5637 22.3504 18.6897 22.7998 18.6897C23.2492 18.6897 23.5439 18.5419 23.6837 18.2463C23.8235 17.9507 23.8934 17.2855 23.8934 16.2508V5.79082Z" fill="#F7000B"/>
<path d="M36.1472 17.229V21.533H31.5782V17.229H36.1472Z" fill="#F7000B"/>
<path d="M49.15 9.57311C50.0688 9.84266 50.7529 10.2861 51.2023 10.9034C51.6517 11.5121 51.8764 12.9467 51.8764 15.2074C51.8764 16.8855 51.6567 18.1898 51.2172 19.1201C50.7778 20.0418 50.0188 20.7461 48.9403 21.233C47.8617 21.7112 46.4785 21.9503 44.7907 21.9503C42.8733 21.9503 41.3653 21.6721 40.2667 21.1156C39.1782 20.5505 38.4591 19.8636 38.1096 19.0549C37.77 18.2376 37.6003 16.8247 37.6003 14.8162V13.1467H43.6522V16.5769C43.6522 17.4898 43.7122 18.0724 43.832 18.3246C43.9618 18.568 44.2415 18.6897 44.6709 18.6897C45.1403 18.6897 45.4499 18.5332 45.5997 18.2202C45.7495 17.9072 45.8244 17.0899 45.8244 15.7682V14.3075C45.8244 13.4989 45.7195 12.9076 45.5098 12.5337C45.3001 12.1599 44.9905 11.9164 44.581 11.8034C44.1716 11.6816 43.3776 11.6121 42.1992 11.5947V8.52972C43.6373 8.52972 44.5261 8.4819 44.8656 8.38626C45.2052 8.29061 45.4499 8.08193 45.5997 7.76022C45.7495 7.43851 45.8244 6.9342 45.8244 6.2473V5.07349C45.8244 4.33442 45.7345 3.8475 45.5547 3.61274C45.385 3.37798 45.1153 3.2606 44.7458 3.2606C44.3264 3.2606 44.0367 3.38667 43.877 3.63883C43.7271 3.88228 43.6522 4.40833 43.6522 5.21696V6.95159H37.6003V5.15174C37.6003 3.13452 38.1296 1.77376 39.1882 1.06948C40.2468 0.356492 41.9295 0 44.2365 0C47.1227 0 49.0801 0.491263 50.1087 1.47379C51.1373 2.45632 51.6517 3.82142 51.6517 5.5691C51.6517 6.75161 51.4669 7.60806 51.0974 8.13845C50.7279 8.66015 50.0787 9.13837 49.15 9.57311Z" fill="#F7000B"/>
<path d="M67.261 0.417356V3.79534H59.7559V7.38199C60.6947 6.41685 61.9031 5.93429 63.3811 5.93429C65.0489 5.93429 66.3073 6.34295 67.1562 7.16027C68.015 7.9689 68.4445 9.52964 68.4445 11.8425V14.8553C68.4445 16.3508 68.3596 17.4507 68.1898 18.155C68.03 18.8506 67.6805 19.4984 67.1412 20.0983C66.6019 20.6896 65.8479 21.1461 64.8792 21.4678C63.9204 21.7808 62.747 21.9373 61.3588 21.9373C59.8009 21.9373 58.4277 21.7025 57.2393 21.233C56.0508 20.7548 55.207 20.0462 54.7076 19.1071C54.2083 18.168 53.9586 16.716 53.9586 14.7509V13.6032H60.0106V14.9205C60.0106 16.2856 60.0655 17.2551 60.1754 17.8289C60.2852 18.4028 60.6647 18.6897 61.3139 18.6897C61.6135 18.6897 61.8532 18.6071 62.0329 18.4419C62.2227 18.2767 62.3225 18.0985 62.3325 17.9072C62.3525 17.7159 62.3725 16.8855 62.3925 15.4161V11.2295C62.3925 10.4383 62.2976 9.89917 62.1078 9.61224C61.9181 9.32531 61.6035 9.18184 61.1641 9.18184C60.8845 9.18184 60.6498 9.25575 60.46 9.40356C60.2703 9.55138 60.1454 9.71223 60.0855 9.88613C60.0356 10.0513 60.0106 10.4426 60.0106 11.0599H54.0185L54.2732 0.417356H67.261Z" fill="#F7000B"/>
<path d="M3.14919 30.7637L4.44305 27.9419H6.02497L3.53979 32.8678L3.33961 33.1918C2.9718 33.7305 2.40869 33.9998 1.65028 33.9998L1.13762 33.9834L1.12297 32.9949C1.20109 33.0059 1.32803 33.0114 1.5038 33.0114C1.70887 33.0114 1.87324 32.9813 1.99693 32.9211C2.12388 32.861 2.22966 32.7502 2.31429 32.5889L2.49494 32.1993L0 27.9419H1.57704L3.14919 30.7637Z" fill="#D3D3D3"/>
<path d="M12.587 33.9137H11.1223V31.3543H8.26602V33.9137H6.80128V27.9419H8.26602V30.3618H11.1223V27.9419H12.587V33.9137Z" fill="#D3D3D3"/>
<path d="M18.1335 27.9419H19.6031V33.9137H18.1335V29.9475L15.287 33.9137H13.8223V27.9419H15.287V31.9163L18.1335 27.9419Z" fill="#D3D3D3"/>
<path d="M20.8726 33.9137V27.9419H23.3626C24.2252 27.9419 24.8794 28.0813 25.3254 28.3602C25.7713 28.6364 25.9943 29.0425 25.9943 29.5784C25.9943 29.871 25.9048 30.1294 25.7257 30.3536C25.5467 30.5751 25.2977 30.7378 24.9787 30.8417C25.3433 30.9182 25.6297 31.0727 25.838 31.3051C26.0496 31.5375 26.1554 31.8219 26.1554 32.1582C26.1554 32.7325 25.9373 33.1672 25.5012 33.4625C25.065 33.7578 24.4433 33.9082 23.636 33.9137H20.8726ZM22.3373 31.3133V32.9252H23.5921C23.9371 32.9252 24.2057 32.8569 24.3977 32.7201C24.593 32.5807 24.6907 32.3893 24.6907 32.1459C24.6907 31.5991 24.3538 31.3215 23.68 31.3133H22.3373ZM22.3373 30.4438H23.4212C24.1601 30.4329 24.5295 30.1854 24.5295 29.7014C24.5295 29.4307 24.4351 29.2366 24.2464 29.119C24.0608 28.9987 23.7662 28.9386 23.3626 28.9386H22.3373V30.4438Z" fill="#D3D3D3"/>
<path d="M31.5359 31.3256H28.7236V32.9252H32.0241V33.9137H27.2588V27.9419H32.0144V28.9386H28.7236V30.3618H31.5359V31.3256Z" fill="#D3D3D3"/>
<path d="M34.3482 31.8096V33.9137H32.8834V27.9419H35.6567C36.1905 27.9419 36.6592 28.0239 37.0628 28.188C37.4697 28.352 37.7822 28.5858 38.0003 28.8893C38.2184 29.1901 38.3274 29.5333 38.3274 29.9188C38.3274 30.504 38.0882 30.9661 37.6097 31.3051C37.1345 31.6415 36.4753 31.8096 35.6323 31.8096H34.3482ZM34.3482 30.8129H35.6567C36.044 30.8129 36.3386 30.7364 36.5404 30.5833C36.7455 30.4301 36.848 30.2114 36.848 29.927C36.848 29.6344 36.7455 29.3979 36.5404 29.2175C36.3354 29.037 36.0522 28.944 35.6909 28.9386H34.3482V30.8129Z" fill="#D3D3D3"/>
<path d="M44.9187 31.9245C44.8634 32.567 44.5802 33.0729 44.0692 33.442C43.5614 33.8111 42.8909 33.9957 42.0576 33.9957C41.1462 33.9957 40.4285 33.7387 39.9044 33.2246C39.3836 32.7078 39.1232 31.9997 39.1232 31.1001V30.735C39.1232 30.1608 39.2437 29.655 39.4846 29.2175C39.7254 28.78 40.0688 28.445 40.5148 28.2126C40.9639 27.9774 41.4847 27.8599 42.0771 27.8599C42.8974 27.8599 43.5582 28.0444 44.0594 28.4136C44.5607 28.7827 44.8504 29.3009 44.9285 29.968H43.4638C43.428 29.5825 43.2994 29.3036 43.078 29.1313C42.86 28.9563 42.5263 28.8688 42.0771 28.8688C41.5889 28.8688 41.2227 29.0165 40.9786 29.3118C40.7377 29.6044 40.614 30.0596 40.6075 30.6776V31.1288C40.6075 31.7741 40.7231 32.2457 40.9542 32.5438C41.1885 32.8418 41.5563 32.9908 42.0576 32.9908C42.5101 32.9908 42.8469 32.9047 43.0683 32.7325C43.2929 32.5575 43.4215 32.2881 43.454 31.9245H44.9187Z" fill="#D3D3D3"/>
<path d="M50.143 27.9419H51.6126V33.9137H50.143V29.9475L47.2965 33.9137H45.8318V27.9419H47.2965V31.9163L50.143 27.9419Z" fill="#D3D3D3"/>
<path d="M58.0868 28.9386H55.9092V33.9137H54.4444V28.9386H52.2962V27.9419H58.0868V28.9386Z" fill="#D3D3D3"/>
<path d="M63.2036 31.3256H60.3913V32.9252H63.6918V33.9137H58.9266V27.9419H63.6821V28.9386H60.3913V30.3618H63.2036V31.3256Z" fill="#D3D3D3"/>
<path d="M70 28.9386H67.8224V33.9137H66.3577V28.9386H64.2094V27.9419H70V28.9386Z" fill="#D3D3D3"/>
</svg>
