<svg viewBox="0 0 20 20" fill="none" xmlns="http://www.w3.org/2000/svg">
<path d="M18.4997 6.20716L2.00724 0.0937264L1.99224 0.089039C1.72677 -0.00236471 1.44097 -0.0174274 1.16737 0.0455647C0.893761 0.108557 0.643326 0.247075 0.444552 0.44536C0.245778 0.643646 0.106644 0.89374 0.0429789 1.16719C-0.020686 1.44064 -0.00632628 1.72647 0.0844241 1.99216C0.085564 1.99729 0.0871319 2.0023 0.0891115 2.00716L6.20724 18.4997C6.30772 18.7937 6.49831 19.0486 6.75193 19.2282C7.00555 19.4078 7.30931 19.5029 7.62005 19.5H7.64817C7.96506 19.4976 8.27278 19.3934 8.52596 19.2028C8.77915 19.0123 8.96441 18.7454 9.05443 18.4415L11.2632 11.264L18.4407 9.05529C18.7423 8.96248 19.0069 8.77693 19.197 8.52503C19.387 8.27313 19.4928 7.96772 19.4992 7.65224C19.5056 7.33675 19.4124 7.02728 19.2328 6.76783C19.0532 6.50839 18.7964 6.3122 18.4988 6.20716H18.4997ZM18.0001 7.62185L10.8225 9.8306C10.5889 9.90258 10.3764 10.0306 10.2035 10.2035C10.0307 10.3763 9.90266 10.5888 9.83068 10.8225L7.62192 18L7.6163 17.984L1.50005 1.49998L17.9832 7.61435L17.9982 7.61998L18.0001 7.62185Z" fill="currentColor"/>
</svg>
