<svg viewBox="0 0 116 348" fill="none" xmlns="http://www.w3.org/2000/svg">
    <path d="M100 1H116" stroke="currentColor" stroke-opacity="0.6" stroke-width="2"/>
    <path d="M100 21H116" stroke="currentColor" stroke-opacity="0.6" stroke-width="2"/>
    <path d="M100 41H116" stroke="currentColor" stroke-opacity="0.6" stroke-width="2"/>
    <path d="M8.55731 71.5V69.724H13.2373V56.236H13.0693L8.84531 60.172L7.66931 58.9L12.1093 54.748H15.2533V69.724H19.5733V71.5H8.55731ZM28.0599 71.788C27.1959 71.788 26.4119 71.644 25.7079 71.356C25.0199 71.052 24.4279 70.628 23.9319 70.084C23.4519 69.524 23.0839 68.844 22.8279 68.044C22.5719 67.244 22.4439 66.348 22.4439 65.356C22.4439 64.108 22.6279 62.94 22.9959 61.852C23.3639 60.748 23.8359 59.748 24.4119 58.852C25.0039 57.94 25.6519 57.14 26.3559 56.452C27.0599 55.748 27.7479 55.18 28.4199 54.748H31.0119C30.1159 55.404 29.3159 56.044 28.6119 56.668C27.9079 57.292 27.2919 57.948 26.7639 58.636C26.2359 59.308 25.7879 60.036 25.4199 60.82C25.0519 61.588 24.7559 62.46 24.5319 63.436L24.6519 63.484C25.0519 62.796 25.5639 62.228 26.1879 61.78C26.8279 61.316 27.6599 61.084 28.6839 61.084C29.4039 61.084 30.0679 61.204 30.6759 61.444C31.2839 61.684 31.8039 62.028 32.2359 62.476C32.6679 62.924 33.0039 63.468 33.2439 64.108C33.4999 64.748 33.6279 65.46 33.6279 66.244C33.6279 67.06 33.4919 67.812 33.2199 68.5C32.9639 69.172 32.5879 69.756 32.0919 70.252C31.6119 70.732 31.0279 71.108 30.3399 71.38C29.6519 71.652 28.8919 71.788 28.0599 71.788ZM28.0359 70.036C29.1399 70.036 29.9959 69.732 30.6039 69.124C31.2279 68.516 31.5399 67.644 31.5399 66.508V66.316C31.5399 65.18 31.2279 64.308 30.6039 63.7C29.9959 63.092 29.1399 62.788 28.0359 62.788C26.9319 62.788 26.0679 63.092 25.4439 63.7C24.8359 64.308 24.5319 65.18 24.5319 66.316V66.508C24.5319 67.644 24.8359 68.516 25.4439 69.124C26.0679 69.732 26.9319 70.036 28.0359 70.036ZM42.4266 71.788C40.4266 71.788 38.9626 71.028 38.0346 69.508C37.1226 67.988 36.6666 65.86 36.6666 63.124C36.6666 60.388 37.1226 58.26 38.0346 56.74C38.9626 55.22 40.4266 54.46 42.4266 54.46C44.4266 54.46 45.8826 55.22 46.7946 56.74C47.7226 58.26 48.1866 60.388 48.1866 63.124C48.1866 65.86 47.7226 67.988 46.7946 69.508C45.8826 71.028 44.4266 71.788 42.4266 71.788ZM42.4266 70.036C43.0826 70.036 43.6426 69.9 44.1066 69.628C44.5706 69.356 44.9466 68.972 45.2346 68.476C45.5226 67.98 45.7306 67.396 45.8586 66.724C46.0026 66.052 46.0746 65.308 46.0746 64.492V61.756C46.0746 60.94 46.0026 60.196 45.8586 59.524C45.7306 58.852 45.5226 58.268 45.2346 57.772C44.9466 57.276 44.5706 56.892 44.1066 56.62C43.6426 56.348 43.0826 56.212 42.4266 56.212C41.7706 56.212 41.2106 56.348 40.7466 56.62C40.2826 56.892 39.9066 57.276 39.6186 57.772C39.3306 58.268 39.1146 58.852 38.9706 59.524C38.8426 60.196 38.7786 60.94 38.7786 61.756V64.492C38.7786 65.308 38.8426 66.052 38.9706 66.724C39.1146 67.396 39.3306 67.98 39.6186 68.476C39.9066 68.972 40.2826 69.356 40.7466 69.628C41.2106 69.9 41.7706 70.036 42.4266 70.036ZM57.3291 59.116H59.8491L63.6171 65.548H63.7131L67.4571 59.116H69.9531V71.5H68.0811V61.42H67.9611L67.2651 62.764L63.6411 68.908L60.0171 62.764L59.3211 61.42H59.2011V71.5H57.3291V59.116Z"
          fill="white"/>
    <path d="M84 62H116" stroke="white" stroke-width="2"/>
    <path d="M100 83H116" stroke="currentColor" stroke-opacity="0.6" stroke-width="2"/>
    <path d="M100 103H116" stroke="currentColor" stroke-opacity="0.6" stroke-width="2"/>
    <path d="M100 123H116" stroke="currentColor" stroke-opacity="0.6" stroke-width="2"/>
    <path d="M100 143H116" stroke="currentColor" stroke-opacity="0.6" stroke-width="2"/>
    <path d="M29.4861 170.5V168.996H32.6221V160.644H32.4941L29.9021 163.412L28.7981 162.42L31.6461 159.332H34.3981V168.996H37.1181V170.5H29.4861ZM42.4719 170.692C41.7785 170.692 41.1759 170.564 40.6639 170.308C40.1519 170.041 39.7305 169.663 39.3999 169.172C39.0692 168.681 38.8239 168.079 38.6639 167.364C38.5039 166.649 38.4239 165.833 38.4239 164.916C38.4239 164.009 38.5039 163.199 38.6639 162.484C38.8239 161.759 39.0692 161.151 39.3999 160.66C39.7305 160.169 40.1519 159.796 40.6639 159.54C41.1759 159.273 41.7785 159.14 42.4719 159.14C43.8585 159.14 44.8772 159.647 45.5279 160.66C46.1892 161.673 46.5199 163.092 46.5199 164.916C46.5199 166.74 46.1892 168.159 45.5279 169.172C44.8772 170.185 43.8585 170.692 42.4719 170.692ZM42.4719 169.156C42.8559 169.156 43.1812 169.081 43.4479 168.932C43.7252 168.772 43.9492 168.548 44.1199 168.26C44.2905 167.972 44.4132 167.631 44.4879 167.236C44.5625 166.831 44.5999 166.383 44.5999 165.892V163.94C44.5999 163.449 44.5625 163.007 44.4879 162.612C44.4132 162.207 44.2905 161.86 44.1199 161.572C43.9492 161.284 43.7252 161.065 43.4479 160.916C43.1812 160.756 42.8559 160.676 42.4719 160.676C42.0879 160.676 41.7572 160.756 41.4799 160.916C41.2132 161.065 40.9945 161.284 40.8239 161.572C40.6532 161.86 40.5305 162.207 40.4559 162.612C40.3812 163.007 40.3439 163.449 40.3439 163.94V165.892C40.3439 166.383 40.3812 166.831 40.4559 167.236C40.5305 167.631 40.6532 167.972 40.8239 168.26C40.9945 168.548 41.2132 168.772 41.4799 168.932C41.7572 169.081 42.0879 169.156 42.4719 169.156ZM52.0656 170.692C51.3723 170.692 50.7696 170.564 50.2576 170.308C49.7456 170.041 49.3243 169.663 48.9936 169.172C48.663 168.681 48.4176 168.079 48.2576 167.364C48.0976 166.649 48.0176 165.833 48.0176 164.916C48.0176 164.009 48.0976 163.199 48.2576 162.484C48.4176 161.759 48.663 161.151 48.9936 160.66C49.3243 160.169 49.7456 159.796 50.2576 159.54C50.7696 159.273 51.3723 159.14 52.0656 159.14C53.4523 159.14 54.471 159.647 55.1216 160.66C55.783 161.673 56.1136 163.092 56.1136 164.916C56.1136 166.74 55.783 168.159 55.1216 169.172C54.471 170.185 53.4523 170.692 52.0656 170.692ZM52.0656 169.156C52.4496 169.156 52.775 169.081 53.0416 168.932C53.319 168.772 53.543 168.548 53.7136 168.26C53.8843 167.972 54.007 167.631 54.0816 167.236C54.1563 166.831 54.1936 166.383 54.1936 165.892V163.94C54.1936 163.449 54.1563 163.007 54.0816 162.612C54.007 162.207 53.8843 161.86 53.7136 161.572C53.543 161.284 53.319 161.065 53.0416 160.916C52.775 160.756 52.4496 160.676 52.0656 160.676C51.6816 160.676 51.351 160.756 51.0736 160.916C50.807 161.065 50.5883 161.284 50.4176 161.572C50.247 161.86 50.1243 162.207 50.0496 162.612C49.975 163.007 49.9376 163.449 49.9376 163.94V165.892C49.9376 166.383 49.975 166.831 50.0496 167.236C50.1243 167.631 50.247 167.972 50.4176 168.26C50.5883 168.548 50.807 168.772 51.0736 168.932C51.351 169.081 51.6816 169.156 52.0656 169.156ZM61.8886 162.18H64.0006L66.3526 166.116H66.3846L68.7366 162.18H70.7526V170.5H69.0406V164.324H68.9766L68.4326 165.348L66.3206 168.868L64.2086 165.348L63.6646 164.324H63.6006V170.5H61.8886V162.18Z"
          fill="currentColor" fill-opacity="0.6"/>
    <path d="M84 164H116" stroke="currentColor" stroke-opacity="0.6" stroke-width="2"/>
    <path d="M100 185H116" stroke="currentColor" stroke-opacity="0.6" stroke-width="2"/>
    <path d="M100 205H116" stroke="currentColor" stroke-opacity="0.6" stroke-width="2"/>
    <path d="M100 225H116" stroke="currentColor" stroke-opacity="0.6" stroke-width="2"/>
    <path d="M100 245H116" stroke="currentColor" stroke-opacity="0.6" stroke-width="2"/>
    <path d="M43.4159 272.5V270.324H38.2319V268.772L42.7599 261.332H45.1279V268.9H46.6479V270.324H45.1279V272.5H43.4159ZM39.7679 268.9H43.4159V262.98H43.3039L39.7679 268.9ZM52.0656 272.692C51.3723 272.692 50.7696 272.564 50.2576 272.308C49.7456 272.041 49.3243 271.663 48.9936 271.172C48.663 270.681 48.4176 270.079 48.2576 269.364C48.0976 268.649 48.0176 267.833 48.0176 266.916C48.0176 266.009 48.0976 265.199 48.2576 264.484C48.4176 263.759 48.663 263.151 48.9936 262.66C49.3243 262.169 49.7456 261.796 50.2576 261.54C50.7696 261.273 51.3723 261.14 52.0656 261.14C53.4523 261.14 54.471 261.647 55.1216 262.66C55.783 263.673 56.1136 265.092 56.1136 266.916C56.1136 268.74 55.783 270.159 55.1216 271.172C54.471 272.185 53.4523 272.692 52.0656 272.692ZM52.0656 271.156C52.4496 271.156 52.775 271.081 53.0416 270.932C53.319 270.772 53.543 270.548 53.7136 270.26C53.8843 269.972 54.007 269.631 54.0816 269.236C54.1563 268.831 54.1936 268.383 54.1936 267.892V265.94C54.1936 265.449 54.1563 265.007 54.0816 264.612C54.007 264.207 53.8843 263.86 53.7136 263.572C53.543 263.284 53.319 263.065 53.0416 262.916C52.775 262.756 52.4496 262.676 52.0656 262.676C51.6816 262.676 51.351 262.756 51.0736 262.916C50.807 263.065 50.5883 263.284 50.4176 263.572C50.247 263.86 50.1243 264.207 50.0496 264.612C49.975 265.007 49.9376 265.449 49.9376 265.94V267.892C49.9376 268.383 49.975 268.831 50.0496 269.236C50.1243 269.631 50.247 269.972 50.4176 270.26C50.5883 270.548 50.807 270.772 51.0736 270.932C51.351 271.081 51.6816 271.156 52.0656 271.156ZM61.8886 264.18H64.0006L66.3526 268.116H66.3846L68.7366 264.18H70.7526V272.5H69.0406V266.324H68.9766L68.4326 267.348L66.3206 270.868L64.2086 267.348L63.6646 266.324H63.6006V272.5H61.8886V264.18Z"
          fill="currentColor" fill-opacity="0.6"/>
    <path d="M84 266H100H116" stroke="currentColor" stroke-opacity="0.6" stroke-width="2"/>
    <path d="M100 287H116" stroke="currentColor" stroke-opacity="0.6" stroke-width="2"/>
    <path d="M100 307H116" stroke="currentColor" stroke-opacity="0.6" stroke-width="2"/>
    <path d="M100 327H116" stroke="currentColor" stroke-opacity="0.6" stroke-width="2"/>
    <path d="M100 347H116" stroke="currentColor" stroke-opacity="0.6" stroke-width="2"/>
</svg>
