<svg viewBox="0 0 20 20" fill="none" xmlns="http://www.w3.org/2000/svg">
<path d="M10.0539 10.9915C9.82078 10.9915 9.62007 10.9174 9.45173 10.7692C9.28339 10.6211 9.19922 10.4444 9.19922 10.2393V6.73504C9.19922 6.52991 9.28339 6.35897 9.45173 6.22222C9.62007 6.07407 9.82078 6 10.0539 6C10.287 6 10.4877 6.07407 10.656 6.22222C10.8244 6.35897 10.9085 6.52991 10.9085 6.73504V10.2393C10.9085 10.4444 10.8244 10.6211 10.656 10.7692C10.4877 10.9174 10.287 10.9915 10.0539 10.9915ZM10.0539 14C9.82078 14 9.62007 13.9259 9.45173 13.7778C9.28339 13.6296 9.19922 13.453 9.19922 13.2479V12.7521C9.19922 12.5356 9.28339 12.359 9.45173 12.2222C9.62007 12.0741 9.82078 12 10.0539 12C10.287 12 10.4877 12.0741 10.656 12.2222C10.8244 12.359 10.9085 12.5356 10.9085 12.7521V13.2479C10.9085 13.453 10.8244 13.6296 10.656 13.7778C10.4877 13.9259 10.287 14 10.0539 14Z" fill="currentColor"/>
<path fill-rule="evenodd" clip-rule="evenodd" d="M10 2.38462C5.79414 2.38462 2.38462 5.79414 2.38462 10C2.38462 14.2059 5.79414 17.6154 10 17.6154C14.2059 17.6154 17.6154 14.2059 17.6154 10C17.6154 5.79414 14.2059 2.38462 10 2.38462ZM1 10C1 5.02944 5.02944 1 10 1C14.9706 1 19 5.02944 19 10C19 14.9706 14.9706 19 10 19C5.02944 19 1 14.9706 1 10Z" fill="currentColor"/>
</svg>
